<?xml version="1.0" standalone="no"?><!DOCTYPE svg PUBLIC "-//W3C//DTD SVG 1.1//EN" "http://www.w3.org/Graphics/SVG/1.1/DTD/svg11.dtd"><svg class="icon" width="200px" height="200.00px" viewBox="0 0 1024 1024" version="1.1" xmlns="http://www.w3.org/2000/svg"><path fill="#333333" d="M822 892H202c-60.7 0-110-49.3-110-110V242c0-60.7 49.3-110 110-110h620c60.7 0 110 49.3 110 110v540c0 60.7-49.3 110-110 110zM202 192c-27.6 0-50 22.4-50 50v540c0 27.6 22.4 50 50 50h620c27.6 0 50-22.4 50-50V242c0-27.6-22.4-50-50-50H202zM932 642H642c-71.7 0-130-58.3-130-130s58.3-130 130-130h290v260zM642 442c-38.6 0-70 31.4-70 70s31.4 70 70 70h230V442H642zM612 512a30 30 0 1 0 60 0 30 30 0 1 0-60 0z" /></svg>