<?xml version="1.0" standalone="no"?><!DOCTYPE svg PUBLIC "-//W3C//DTD SVG 1.1//EN" "http://www.w3.org/Graphics/SVG/1.1/DTD/svg11.dtd"><svg class="icon" width="200px" height="200.00px" viewBox="0 0 1024 1024" version="1.1" xmlns="http://www.w3.org/2000/svg"><path fill="#333333" d="M322 892c-60.7 0-110-49.3-110-110s49.3-110 110-110 110 49.3 110 110-49.3 110-110 110z m0-160c-27.6 0-50 22.4-50 50s22.4 50 50 50 50-22.4 50-50-22.4-50-50-50z m380 160c-60.7 0-110-49.3-110-110s49.3-110 110-110 110 49.3 110 110-49.3 110-110 110z m0-160c-27.6 0-50 22.4-50 50s22.4 50 50 50 50-22.4 50-50-22.4-50-50-50zM232 812h-70c-18.7 0-36.3-7.3-49.5-20.5C99.3 778.3 92 760.7 92 742V462.4c0-11 2.6-22 7.6-31.8s12.3-18.4 21.2-24.8l187.1-136c1.3-0.9 2.3-2.1 3-3.5 0.7-1.4 1.1-2.9 1.1-4.5V202c0-18.7 7.3-36.3 20.5-49.5 13.2-13.2 30.8-20.5 49.5-20.5h170c16.6 0 30 13.4 30 30s-13.4 30-30 30H382c-1.5 0-4.5 0.4-7.1 2.9-2.5 2.5-2.9 5.5-2.9 7.1v59.6c0 11-2.6 22-7.6 31.8s-12.3 18.4-21.2 24.8l-187.1 136c-1.3 0.9-2.3 2.1-3 3.5-0.7 1.4-1.1 2.9-1.1 4.5V742c0 1.5 0.4 4.5 2.9 7.1 2.5 2.5 5.5 2.9 7.1 2.9h70c16.6 0 30 13.4 30 30s-13.4 30-30 30zM862 812h-70c-16.6 0-30-13.4-30-30s13.4-30 30-30h70c1.5 0 4.5-0.4 7.1-2.9 2.5-2.5 2.9-5.5 2.9-7.1V202c0-1.5-0.4-4.5-2.9-7.1-2.5-2.5-5.5-2.9-7.1-2.9H512c-16.6 0-30-13.4-30-30s13.4-30 30-30h350c18.7 0 36.3 7.3 49.5 20.5 13.2 13.2 20.5 30.8 20.5 49.5v540c0 18.7-7.3 36.3-20.5 49.5-13.2 13.2-30.8 20.5-49.5 20.5z m-240 0H402c-16.6 0-30-13.4-30-30s13.4-30 30-30h220c16.6 0 30 13.4 30 30s-13.4 30-30 30zM342 572H222c-16.6 0-30-13.4-30-30s13.4-30 30-30h90v-90c0-16.6 13.4-30 30-30s30 13.4 30 30v120c0 16.6-13.4 30-30 30z" /></svg>