<?xml version="1.0" standalone="no"?><!DOCTYPE svg PUBLIC "-//W3C//DTD SVG 1.1//EN" "http://www.w3.org/Graphics/SVG/1.1/DTD/svg11.dtd"><svg class="icon" width="200px" height="200.00px" viewBox="0 0 1024 1024" version="1.1" xmlns="http://www.w3.org/2000/svg"><path fill="#333333" d="M711.5 533.5h47.4v47.4h-47.4zM244.1 782.5l-56-41.9-29.4 39.2 96.2 72 108.5-152.3-39.9-28.4zM957.2 801.5V253.6H893L872 74.8 225 250.5v313.9C133.9 578.9 64 658 64 753.1v2.4c0 105.4 85.7 191.1 191.1 191.1h2.4c65.9 0 124.1-33.5 158.5-84.4h541.2v-34.9h3l-3-25.8zM830 137l13.7 116.6H400.3L830 137zM257.5 897.6h-2.4c-78.4 0-142.1-63.8-142.1-142.1v-2.4c0-78.4 63.8-142.1 142.1-142.1h2.4c78.4 0 142.1 63.8 142.1 142.1v2.4c0 78.3-63.7 142.1-142.1 142.1z m650.7-269.4H657.8v-142h250.4v142z m0-191H608.8v240h299.4v136.1H439.7c5.8-18.2 8.9-37.6 8.9-57.8v-2.4c0-99.8-76.9-182-174.6-190.4V302.6h634.2v134.6z" /></svg>