<?xml version="1.0" encoding="UTF-8"?>
<svg width="75px" height="50px" viewBox="0 0 75 50" version="1.1" xmlns="http://www.w3.org/2000/svg" xmlns:xlink="http://www.w3.org/1999/xlink">
    <!-- Generator: Sketch 49 (51002) - http://www.bohemiancoding.com/sketch -->
    <title>会员-1</title>
    <desc>Created with Sketch.</desc>
    <defs>
        <linearGradient x1="34.6488761%" y1="0%" x2="40.0537095%" y2="100%" id="linearGradient-1">
            <stop stop-color="#DFCFC1" offset="0%"></stop>
            <stop stop-color="#AD9F9E" offset="100%"></stop>
        </linearGradient>
        <linearGradient x1="65.5537704%" y1="0%" x2="55.2733269%" y2="100%" id="linearGradient-2">
            <stop stop-color="#DFCFC1" offset="0%"></stop>
            <stop stop-color="#AD9F9E" offset="100%"></stop>
        </linearGradient>
    </defs>
    <g id="Page-1" stroke="none" stroke-width="1" fill="none" fill-rule="evenodd">
        <g id="1" transform="translate(0.000000, -234.000000)">
            <g id="会员-1" transform="translate(0.617284, 234.000000)">
                <path d="M4.32098765,15.4320988 L58.1629801,45.9641974 C59.0191615,46.4502408 59.4390856,47.446755 59.1864251,48.3929161 C58.9337646,49.3390772 58.0716509,49.9984709 57.0852694,49.9999999 L12.520298,49.9999999 C10.32386,50.0004746 8.47092736,48.3775839 8.19856911,46.2148147 L4.32098765,15.4320988 Z" id="Shape" fill="url(#linearGradient-1)" fill-rule="nonzero"></path>
                <path d="M69.7530864,15.4320988 L65.8756584,46.2148146 C65.6033109,48.3775838 63.7504516,50.0004744 61.5541006,49.9999998 L16.9930697,49.9999998 C16.0059183,50.0004269 15.1420177,49.3416866 14.888206,48.395002 C14.6343943,47.4483175 15.0541997,46.4506407 15.9110474,45.9641973 L69.7530864,15.4320988 Z" id="Shape" fill="url(#linearGradient-2)" fill-rule="nonzero"></path>
                <path d="M37.037037,6.79012346 L61.0232756,43.324074 C61.8955462,44.652668 61.9633258,46.3473928 61.1998926,47.7401135 C60.4364595,49.1328343 58.9642996,50.0001014 57.3638031,50 L16.710271,50 C15.1097745,50.0001014 13.6376146,49.1328343 12.8741814,47.7401135 C12.1107483,46.3473928 12.1785278,44.652668 13.0507985,43.324074 L37.037037,6.79012346 Z" id="Shape" fill="#D9C8BD" fill-rule="nonzero"></path>
                <path d="M37.037037,6.79012346 L61.0232756,43.324074 C61.8955462,44.652668 61.9633258,46.3473928 61.1998926,47.7401135 C60.4364595,49.1328343 58.9642996,50.0001014 57.3638031,50 L37.037037,50 L37.037037,6.79012346 Z" id="Shape" fill="#E8DED4" fill-rule="nonzero"></path>
                <path d="M32.7160494,4.32098765 C32.7160494,6.70740324 34.6506215,8.64197531 37.037037,8.64197531 C39.4234526,8.64197531 41.3580247,6.70740324 41.3580247,4.32098765 C41.3580247,1.93457207 39.4234526,0 37.037037,0 C34.6506215,0 32.7160494,1.93457207 32.7160494,4.32098765 Z" id="Shape" fill="#DBD4CF" fill-rule="nonzero"></path>
                <path d="M65.4320988,12.9629629 C65.4320987,14.5067031 66.2556743,15.9331779 67.5925925,16.705048 C68.9295108,17.4769181 70.576662,17.4769181 71.9135803,16.705048 C73.2504986,15.9331779 74.0740741,14.5067031 74.0740741,12.9629629 C74.0740741,10.5765473 72.139502,8.64197531 69.7530864,8.64197531 C67.3666708,8.64197531 65.4320988,10.5765473 65.4320988,12.9629629 Z" id="Shape" fill="#DBD4CF" fill-rule="nonzero"></path>
                <path d="M0,12.962963 C2.92251621e-16,15.3493785 1.93457207,17.2839506 4.32098765,17.2839506 C6.70740324,17.2839506 8.64197531,15.3493785 8.64197531,12.962963 C8.64197531,10.5765474 6.70740324,8.64197531 4.32098765,8.64197531 C1.93457207,8.64197531 2.92251621e-16,10.5765474 0,12.962963 Z" id="Shape" fill="#DBD4CF" fill-rule="nonzero"></path>
                <path d="M27.8515625,45 L23.421875,32.0625 L27.7109375,32.0625 L29.9609375,40.640625 L32.28125,32.0625 L36.5703125,32.0625 L32.0703125,45 L27.8515625,45 Z M37.625,40.5703125 L41.140625,40.5703125 C41.140625,41.1328153 41.3046859,41.6015606 41.6328125,41.9765625 C41.9609391,42.2578139 42.4062472,42.4218748 42.96875,42.46875 C44.0000052,42.4218748 44.5624995,41.9296922 44.65625,40.9921875 C44.7031252,39.9609323 43.9062582,39.492187 42.265625,39.5859375 L42.265625,37.3359375 C43.7656325,37.429688 44.515625,37.0078172 44.515625,36.0703125 C44.515625,35.3203087 44.0234424,34.9453125 43.0390625,34.9453125 C42.0546826,34.9453125 41.5156255,35.3906205 41.421875,36.28125 L38.046875,36.28125 C38.2343759,33.6562369 39.9452963,32.2734382 43.1796875,32.1328125 C46.273453,32.226563 47.8906243,33.3984262 48.03125,35.6484375 C48.03125,36.8671936 47.5390674,37.7109352 46.5546875,38.1796875 C47.7265684,38.6484398 48.3359373,39.5390559 48.3828125,40.8515625 C48.3359373,43.6640766 46.460956,45.0937498 42.7578125,45.140625 C39.3827956,45.0468745 37.6718752,43.5234523 37.625,40.5703125 Z" id="V3" fill="#695846"></path>
            </g>
        </g>
    </g>
</svg>