<?xml version="1.0" encoding="UTF-8"?>
<svg width="75px" height="50px" viewBox="0 0 75 50" version="1.1" xmlns="http://www.w3.org/2000/svg" xmlns:xlink="http://www.w3.org/1999/xlink">
    <!-- Generator: Sketch 49 (51002) - http://www.bohemiancoding.com/sketch -->
    <title>会员-1</title>
    <desc>Created with Sketch.</desc>
    <defs>
        <linearGradient x1="33.4991326%" y1="0%" x2="41.4141969%" y2="85.4003906%" id="linearGradient-1">
            <stop stop-color="#F9FF88" offset="0%"></stop>
            <stop stop-color="#BB8027" offset="100%"></stop>
        </linearGradient>
        <linearGradient x1="66.4018205%" y1="8.984375%" x2="58.8047489%" y2="78.843471%" id="linearGradient-2">
            <stop stop-color="#F9FF88" offset="0%"></stop>
            <stop stop-color="#BB8027" offset="100%"></stop>
        </linearGradient>
    </defs>
    <g id="Page-1" stroke="none" stroke-width="1" fill="none" fill-rule="evenodd">
        <g id="VIP">
            <g id="会员-1" transform="translate(0.617284, 0.000000)">
                <path d="M4.32098765,15.4320988 L58.1629801,45.9641974 C59.0191615,46.4502408 59.4390856,47.446755 59.1864251,48.3929161 C58.9337646,49.3390772 58.0716509,49.9984709 57.0852694,49.9999999 L12.520298,49.9999999 C10.32386,50.0004746 8.47092736,48.3775839 8.19856911,46.2148147 L4.32098765,15.4320988 Z" id="Shape" fill="url(#linearGradient-1)" fill-rule="nonzero"></path>
                <path d="M69.7530864,15.4320988 L65.8756584,46.2148146 C65.6033109,48.3775838 63.7504516,50.0004744 61.5541006,49.9999998 L16.9930697,49.9999998 C16.0059183,50.0004269 15.1420177,49.3416866 14.888206,48.395002 C14.6343943,47.4483175 15.0541997,46.4506407 15.9110474,45.9641973 L69.7530864,15.4320988 Z" id="Shape" fill="url(#linearGradient-2)" fill-rule="nonzero"></path>
                <path d="M37.037037,6.79012346 L61.0232756,43.324074 C61.8955462,44.652668 61.9633258,46.3473928 61.1998926,47.7401135 C60.4364595,49.1328343 58.9642996,50.0001014 57.3638031,50 L16.710271,50 C15.1097745,50.0001014 13.6376146,49.1328343 12.8741814,47.7401135 C12.1107483,46.3473928 12.1785278,44.652668 13.0507985,43.324074 L37.037037,6.79012346 Z" id="Shape" fill="#E8CB32" fill-rule="nonzero"></path>
                <path d="M37.037037,6.79012346 L61.0232756,43.324074 C61.8955462,44.652668 61.9633258,46.3473928 61.1998926,47.7401135 C60.4364595,49.1328343 58.9642996,50.0001014 57.3638031,50 L37.037037,50 L37.037037,6.79012346 Z" id="Shape" fill="#F3DC81" fill-rule="nonzero"></path>
                <path d="M32.7160494,4.32098765 C32.7160494,6.70740324 34.6506215,8.64197531 37.037037,8.64197531 C39.4234526,8.64197531 41.3580247,6.70740324 41.3580247,4.32098765 C41.3580247,1.93457207 39.4234526,0 37.037037,0 C34.6506215,0 32.7160494,1.93457207 32.7160494,4.32098765 Z" id="Shape" fill="#E8CB32" fill-rule="nonzero"></path>
                <path d="M65.4320988,12.9629629 C65.4320987,14.5067031 66.2556743,15.9331779 67.5925925,16.705048 C68.9295108,17.4769181 70.576662,17.4769181 71.9135803,16.705048 C73.2504986,15.9331779 74.0740741,14.5067031 74.0740741,12.9629629 C74.0740741,10.5765473 72.139502,8.64197531 69.7530864,8.64197531 C67.3666708,8.64197531 65.4320988,10.5765473 65.4320988,12.9629629 Z" id="Shape" fill="#F8FD86" fill-rule="nonzero"></path>
                <path d="M0,12.962963 C2.92251621e-16,15.3493785 1.93457207,17.2839506 4.32098765,17.2839506 C6.70740324,17.2839506 8.64197531,15.3493785 8.64197531,12.962963 C8.64197531,10.5765474 6.70740324,8.64197531 4.32098765,8.64197531 C1.93457207,8.64197531 2.92251621e-16,10.5765474 0,12.962963 Z" id="Shape" fill="#F8FD86" fill-rule="nonzero"></path>
                <path d="M25.5676118,45.3333333 L21.1379243,32.3958333 L25.4269868,32.3958333 L27.6769868,40.9739583 L29.9972993,32.3958333 L34.2863618,32.3958333 L29.7863618,45.3333333 L25.5676118,45.3333333 Z M40.3332368,45.3333333 L36.0441743,45.3333333 L36.0441743,32.3958333 L40.3332368,32.3958333 L40.3332368,45.3333333 Z M46.9426118,38.3020833 L48.7004243,38.3020833 C49.8254299,38.3020833 50.3879243,37.7864635 50.3879243,36.7552083 C50.3879243,35.8645788 49.6379318,35.4192708 48.1379243,35.4192708 L46.9426118,35.4192708 L46.9426118,38.3020833 Z M46.9426118,45.3333333 L42.7238618,45.3333333 L42.7238618,32.3958333 L48.9113618,32.3958333 C52.5207548,32.4427085 54.3722988,33.895819 54.4660493,36.7552083 C54.4191741,39.7552233 52.6145046,41.2786456 49.0519868,41.3255208 L46.9426118,41.3255208 L46.9426118,45.3333333 Z" id="VIP" fill="#A97423"></path>
            </g>
        </g>
    </g>
</svg>