<?xml version="1.0" encoding="UTF-8"?>
<svg width="75px" height="50px" viewBox="0 0 75 50" version="1.1" xmlns="http://www.w3.org/2000/svg" xmlns:xlink="http://www.w3.org/1999/xlink">
    <!-- Generator: Sketch 49 (51002) - http://www.bohemiancoding.com/sketch -->
    <title>会员-1</title>
    <desc>Created with Sketch.</desc>
    <defs>
        <linearGradient x1="34.6488761%" y1="0%" x2="40.0537095%" y2="100%" id="linearGradient-1">
            <stop stop-color="#DFCFC1" offset="0%"></stop>
            <stop stop-color="#AD9F9E" offset="100%"></stop>
        </linearGradient>
        <linearGradient x1="65.5537704%" y1="0%" x2="55.2733269%" y2="100%" id="linearGradient-2">
            <stop stop-color="#DFCFC1" offset="0%"></stop>
            <stop stop-color="#AD9F9E" offset="100%"></stop>
        </linearGradient>
    </defs>
    <g id="Page-1" stroke="none" stroke-width="1" fill="none" fill-rule="evenodd">
        <g id="1">
            <g id="会员-1" transform="translate(0.617284, 0.000000)">
                <path d="M4.32098765,15.4320988 L58.1629801,45.9641974 C59.0191615,46.4502408 59.4390856,47.446755 59.1864251,48.3929161 C58.9337646,49.3390772 58.0716509,49.9984709 57.0852694,49.9999999 L12.520298,49.9999999 C10.32386,50.0004746 8.47092736,48.3775839 8.19856911,46.2148147 L4.32098765,15.4320988 Z" id="Shape" fill="url(#linearGradient-1)" fill-rule="nonzero"></path>
                <path d="M69.7530864,15.4320988 L65.8756584,46.2148146 C65.6033109,48.3775838 63.7504516,50.0004744 61.5541006,49.9999998 L16.9930697,49.9999998 C16.0059183,50.0004269 15.1420177,49.3416866 14.888206,48.395002 C14.6343943,47.4483175 15.0541997,46.4506407 15.9110474,45.9641973 L69.7530864,15.4320988 Z" id="Shape" fill="url(#linearGradient-2)" fill-rule="nonzero"></path>
                <path d="M37.037037,6.79012346 L61.0232756,43.324074 C61.8955462,44.652668 61.9633258,46.3473928 61.1998926,47.7401135 C60.4364595,49.1328343 58.9642996,50.0001014 57.3638031,50 L16.710271,50 C15.1097745,50.0001014 13.6376146,49.1328343 12.8741814,47.7401135 C12.1107483,46.3473928 12.1785278,44.652668 13.0507985,43.324074 L37.037037,6.79012346 Z" id="Shape" fill="#D9C8BD" fill-rule="nonzero"></path>
                <path d="M37.037037,6.79012346 L61.0232756,43.324074 C61.8955462,44.652668 61.9633258,46.3473928 61.1998926,47.7401135 C60.4364595,49.1328343 58.9642996,50.0001014 57.3638031,50 L37.037037,50 L37.037037,6.79012346 Z" id="Shape" fill="#E8DED4" fill-rule="nonzero"></path>
                <path d="M32.7160494,4.32098765 C32.7160494,6.70740324 34.6506215,8.64197531 37.037037,8.64197531 C39.4234526,8.64197531 41.3580247,6.70740324 41.3580247,4.32098765 C41.3580247,1.93457207 39.4234526,0 37.037037,0 C34.6506215,0 32.7160494,1.93457207 32.7160494,4.32098765 Z" id="Shape" fill="#DBD4CF" fill-rule="nonzero"></path>
                <path d="M65.4320988,12.9629629 C65.4320987,14.5067031 66.2556743,15.9331779 67.5925925,16.705048 C68.9295108,17.4769181 70.576662,17.4769181 71.9135803,16.705048 C73.2504986,15.9331779 74.0740741,14.5067031 74.0740741,12.9629629 C74.0740741,10.5765473 72.139502,8.64197531 69.7530864,8.64197531 C67.3666708,8.64197531 65.4320988,10.5765473 65.4320988,12.9629629 Z" id="Shape" fill="#DBD4CF" fill-rule="nonzero"></path>
                <path d="M0,12.962963 C2.92251621e-16,15.3493785 1.93457207,17.2839506 4.32098765,17.2839506 C6.70740324,17.2839506 8.64197531,15.3493785 8.64197531,12.962963 C8.64197531,10.5765474 6.70740324,8.64197531 4.32098765,8.64197531 C1.93457207,8.64197531 2.92251621e-16,10.5765474 0,12.962963 Z" id="Shape" fill="#DBD4CF" fill-rule="nonzero"></path>
                <path d="M28.5676118,45.3333333 L24.1379243,32.3958333 L28.4269868,32.3958333 L30.6769868,40.9739583 L32.9972993,32.3958333 L37.2863618,32.3958333 L32.7863618,45.3333333 L28.5676118,45.3333333 Z M46.1457368,32.4661458 L46.1457368,45.3333333 L42.4191743,45.3333333 L42.4191743,37.9505208 L39.4660493,37.9505208 L39.4660493,35.3489583 C41.6691853,35.3489583 42.9582349,34.3880304 43.3332368,32.4661458 L46.1457368,32.4661458 Z" id="V1" fill="#695846"></path>
            </g>
        </g>
    </g>
</svg>